<svg width="45" height="45" viewBox="0 0 45 45" fill="none" xmlns="http://www.w3.org/2000/svg">
<g clip-path="url(#clip0_10_209)">
<mask id="mask0_10_209" style="mask-type:luminance" maskUnits="userSpaceOnUse" x="0" y="0" width="45" height="45">
<path d="M0.359467 0.359375H44.6396V44.6396H0.359467V0.359375Z" fill="white"/>
</mask>
<g mask="url(#mask0_10_209)">
<path d="M44.4384 18.6758L39.809 13.711C39.7421 13.6441 39.6078 13.5768 39.5406 13.5768L28.9401 9.4171C29.0743 9.21591 29.1413 8.94743 29.007 8.67896C28.8728 8.47777 28.6716 8.27624 28.4031 8.27624H25.8536L25.8539 1.03071C25.8539 0.628 25.5854 0.359863 25.1831 0.359863H19.6816C19.2789 0.359863 19.0108 0.628343 19.0108 1.03071V8.2765H16.4613C16.1928 8.2765 15.9916 8.41074 15.8574 8.67922C15.7231 8.88041 15.7904 9.14889 15.9243 9.35007L5.9953 13.3755C5.92835 13.4425 5.86107 13.4425 5.79411 13.5098L0.560841 18.81C0.426605 18.9443 0.35965 19.2124 0.35965 19.4136C0.426598 19.6148 0.56084 19.8163 0.762365 19.8833L5.59292 21.8289V36.7228C5.59292 36.9913 5.72716 37.2595 5.99564 37.3267L22.0972 44.5725C22.1641 44.5725 22.2314 44.6395 22.3657 44.6395C22.4326 44.6395 22.4999 44.6395 22.5669 44.5725L39.608 37.5279C39.8765 37.3937 40.0107 37.1925 40.0107 36.924L40.01 21.4263L44.1697 19.7491C44.3709 19.6822 44.5051 19.4807 44.5724 19.2795C44.6394 19.011 44.6394 18.8098 44.4382 18.6756L44.4384 18.6758ZM19.7491 9.61866C20.1518 9.61866 20.4199 9.35018 20.4199 8.94781V1.70166H24.5796V8.94745C24.5796 9.35017 24.8481 9.61831 25.2504 9.61831H27.0618L22.4997 15.4555L17.9377 9.61866H19.7491ZM16.8641 10.4238L21.9632 16.9988C22.0974 17.133 22.2986 17.2672 22.4998 17.2672C22.701 17.2672 22.9025 17.2003 23.0364 16.9988L28.1355 10.4911L37.5284 14.1811L22.3655 19.8837L8.07533 14.0469L16.8641 10.4238ZM6.39812 14.7846L20.9563 20.7557L15.6561 24.6469C5.25686 20.286 8.07481 21.4265 2.17102 19.0783L6.39812 14.7846ZM6.93473 22.3659L15.5223 25.989C15.7235 26.056 15.9919 26.056 16.1931 25.9221L21.6945 21.8966V42.8963L6.93419 36.2544L6.93473 22.3659ZM38.6685 36.4548L22.9695 42.9624L22.9698 21.9627L27.8004 25.9212C28.0016 26.0555 28.2701 26.1224 28.4713 26.0555L38.6692 21.9631L38.6685 36.4548ZM28.337 24.6467L23.6406 20.8224L39.2061 14.9855L42.8292 18.8767L28.337 24.6467Z" fill="#63B746"/>
</g>
</g>
<defs>
<clipPath id="clip0_10_209">
<rect width="45" height="45" rx="3" fill="white"/>
</clipPath>
</defs>
</svg>
