<svg width="30" height="30" viewBox="0 0 30 30" fill="none" xmlns="http://www.w3.org/2000/svg">
<path d="M26.5588 19.8981L22.1677 18.5051C21.6074 18.3252 21.0084 18.3005 20.4351 18.4337C19.8617 18.5669 19.3351 18.853 18.9114 19.2616L17.1678 20.9404V20.9406C15.8527 20.1993 14.6027 19.3476 13.4317 18.3946C12.7501 17.85 12.1313 17.2312 11.5867 16.5496C10.6307 15.3951 9.77584 14.1605 9.03129 12.8595L10.7101 11.1252H10.7103C11.1189 10.6995 11.405 10.1713 11.538 9.59653C11.6712 9.02158 11.6465 8.42143 11.4668 7.85952L10.1015 3.44987C9.85157 2.66823 9.31829 2.00834 8.6062 1.6003C7.8944 1.1922 7.05528 1.06563 6.25466 1.24507L4.40966 1.66026C3.32638 1.92416 2.45087 2.71952 2.08489 3.77286C-1.54974 13.6899 6.9095 21.6416 7.66595 22.3793C8.23792 23.0067 13.7544 28.8832 21.245 28.8832C22.9502 28.8745 24.64 28.5621 26.2358 27.9608C27.2937 27.5836 28.0866 26.6935 28.339 25.5992L28.7542 23.7542C28.9346 22.9533 28.8094 22.1143 28.4034 21.4008C27.9973 20.6876 27.3393 20.1516 26.5586 19.898L26.5588 19.8981ZM26.9925 23.3022L26.5773 25.1472C26.4661 25.6304 26.1196 26.0254 25.6549 26.1989C16.679 29.4555 9.14206 21.1345 9.05007 21.0514L8.96698 20.9683C8.88389 20.8946 0.562878 13.3575 3.8194 4.3634C3.99427 3.91044 4.38062 3.57238 4.85258 3.4593L6.69758 3.00726C6.78959 2.99719 6.88252 2.99719 6.97431 3.00726C7.27895 3.00909 7.57513 3.10613 7.82163 3.28466C8.06813 3.46342 8.25262 3.71473 8.34897 4.00361L9.74192 8.39468C9.81814 8.63959 9.82752 8.90051 9.76916 9.15025C9.71079 9.40018 9.58674 9.62976 9.40982 9.8154L7.28808 12.0202C7.16379 12.1484 7.07911 12.3098 7.04478 12.4851C7.01045 12.6602 7.02761 12.8417 7.09422 13.0074C7.91248 14.7178 8.94472 16.3172 10.1663 17.7674C10.7948 18.5436 11.5028 19.2515 12.2789 19.88C13.7147 21.0984 15.2985 22.1304 16.9927 22.9519C17.1584 23.0187 17.3399 23.0359 17.515 23.0015C17.6903 22.967 17.8517 22.8825 17.9799 22.7582L20.1847 20.6456C20.3699 20.4646 20.6006 20.3373 20.8524 20.2771C21.1041 20.2172 21.3676 20.2266 21.6146 20.3044L25.9965 21.6973C26.3272 21.8012 26.6094 22.0205 26.7923 22.3151C26.9752 22.6097 27.0464 22.9598 26.9928 23.3025L26.9925 23.3022Z" fill="#F3F3F3"/>
<path d="M26.0701 1.16233H16.8451C16.1111 1.16233 15.4071 1.45393 14.8882 1.97304C14.3691 2.49214 14.0775 3.19595 14.0775 3.92995V13.8007C14.0683 14.4168 14.3277 15.0064 14.7877 15.4163C15.2478 15.8262 15.8632 16.0157 16.4743 15.9359C17.0852 15.856 17.6313 15.5143 17.9705 15L19.1882 13.155H26.07C26.804 13.155 27.5081 12.8634 28.0269 12.3443C28.546 11.8254 28.8376 11.1213 28.8376 10.3873V3.92973C28.8376 3.19572 28.546 2.49189 28.0269 1.97281C27.508 1.45371 26.804 1.16211 26.07 1.16211L26.0701 1.16233ZM26.9925 10.3873H26.9927C26.9927 10.632 26.8955 10.8666 26.7224 11.0397C26.5494 11.2127 26.3148 11.31 26.0701 11.31H18.6902C18.3815 11.3116 18.0942 11.4672 17.9244 11.7249L16.43 13.948V13.9483C16.3577 14.0384 16.238 14.0762 16.127 14.0439C16.016 14.0117 15.9352 13.9155 15.9226 13.8006V3.92993C15.9226 3.68526 16.0199 3.45065 16.1929 3.27761C16.3657 3.10457 16.6005 3.0073 16.8452 3.0073H26.0702C26.3149 3.0073 26.5495 3.10457 26.7225 3.27761C26.8956 3.45064 26.9929 3.68524 26.9929 3.92993L26.9925 10.3873Z" fill="#F3F3F3"/>
<path d="M24.225 7.62012H18.6902C18.3606 7.62012 18.056 7.7959 17.8911 8.08132C17.7263 8.36673 17.7263 8.71829 17.8911 9.00393C18.0559 9.28935 18.3606 9.46513 18.6902 9.46513H24.2252H24.225C24.5546 9.46513 24.8592 9.28935 25.024 9.00393C25.1888 8.71829 25.1888 8.36673 25.024 8.08132C24.8592 7.7959 24.5546 7.62012 24.225 7.62012Z" fill="#F3F3F3"/>
<path d="M18.6902 6.69706H22.3803H22.3801C22.7097 6.69706 23.0143 6.52127 23.1791 6.23586C23.3439 5.95044 23.3439 5.59889 23.1791 5.31348C23.0143 5.02807 22.7097 4.85205 22.3801 4.85205H18.6902C18.3607 4.85205 18.056 5.02806 17.8912 5.31348C17.7264 5.59889 17.7264 5.95045 17.8912 6.23586C18.056 6.52127 18.3606 6.69706 18.6902 6.69706Z" fill="#F3F3F3"/>
</svg>
