<svg width="48" height="48" viewBox="0 0 48 48" fill="none" xmlns="http://www.w3.org/2000/svg">
<path d="M45.9234 27.1679L36.7619 18.0064C36.3477 17.5896 35.7841 17.356 35.1967 17.3574H25.4758V18.8332H26.2137V29.9042H27.6895L27.6899 18.8342H35.1968C35.3924 18.8349 35.5799 18.9125 35.7187 19.0502L36.9785 20.3101H33.5939C33.2024 20.3101 32.8271 20.4657 32.5502 20.7426C32.2733 21.0194 32.1177 21.3948 32.1177 21.7863V28.4283C32.1177 28.8198 32.2733 29.1951 32.5502 29.472C32.827 29.7489 33.2024 29.9045 33.5939 29.9045H44.6639V35.8086V35.8082C44.6639 36.0041 44.5863 36.1916 44.4478 36.3301C44.3094 36.4685 44.1219 36.5465 43.926 36.5465H42.3908C42.1535 34.8942 41.1318 33.4589 39.6483 32.6939C38.1648 31.9293 36.4029 31.9293 34.9197 32.6939C33.4362 33.459 32.4141 34.8942 32.1768 36.5465H21.7274C21.4901 34.8942 20.4683 33.4589 18.9848 32.6939C17.5013 31.9293 15.7395 31.9293 14.256 32.6939C12.7725 33.459 11.7507 34.8942 11.5134 36.5465H9.97828C9.57068 36.5465 9.24036 36.2158 9.24036 35.8082V28.4283H7.76418V35.8082C7.76418 36.3956 7.99745 36.9588 8.41274 37.3737C8.82802 37.789 9.3913 38.0223 9.97827 38.0223H11.5134C11.6742 39.1448 12.2012 40.1822 13.0123 40.9743H1.8598V42.4501L37.2842 42.4505C38.5252 42.449 39.7246 42.0004 40.6625 41.1874C41.6 40.3744 42.2137 39.2509 42.391 38.0222H43.9262C44.5132 38.0222 45.0765 37.7889 45.4917 37.3736C45.907 36.9587 46.1403 36.3955 46.1403 35.8081V27.6903C46.1403 27.4944 46.0623 27.3069 45.9238 27.1684L45.9234 27.1679ZM12.93 37.2835C12.93 36.305 13.3189 35.3664 14.0106 34.6743C14.7028 33.9821 15.6414 33.5936 16.6199 33.5936C17.5987 33.5936 18.5373 33.9822 19.2291 34.6743C19.9213 35.3664 20.3098 36.305 20.3098 37.2835C20.3098 38.262 19.9212 39.2006 19.2291 39.8928C18.5374 40.5845 17.5987 40.9734 16.6199 40.9734C15.6417 40.9723 14.7038 40.583 14.0121 39.8913C13.3204 39.1995 12.9311 38.2616 12.93 37.2835ZM20.2282 40.9734C21.039 40.1813 21.566 39.1438 21.7271 38.0214H32.1765C32.3376 39.1439 32.8646 40.1813 33.6753 40.9734H20.2282ZM37.2842 40.9734C36.3056 40.9734 35.3671 40.5845 34.6749 39.8928C33.9828 39.2006 33.5942 38.262 33.5942 37.2835C33.5942 36.305 33.9828 35.3664 34.6749 34.6743C35.367 33.9821 36.3057 33.5936 37.2842 33.5936C38.2626 33.5936 39.2013 33.9822 39.8934 34.6743C40.5852 35.3664 40.9741 36.305 40.9741 37.2835C40.973 38.2617 40.5837 39.1996 39.8919 39.8913C39.2001 40.583 38.2622 40.9723 37.2842 40.9734ZM33.5942 28.4278V21.7858H38.4546L44.6641 27.9952V28.4277L33.5942 28.4278Z" fill="#63B746"/>
<path d="M15.8822 36.5457H17.358V38.0215H15.8822V36.5457Z" fill="#63B746"/>
<path d="M36.5456 36.5457H38.0214V38.0215H36.5456V36.5457Z" fill="#63B746"/>
<path d="M1.85999 34.3323H5.54989V35.8081H1.85999V34.3323Z" fill="#63B746"/>
<path d="M3.33563 31.3801H5.54973V32.8559H3.33563V31.3801Z" fill="#63B746"/>
<path d="M4.07343 28.428H5.54924V29.9038H4.07343V28.428Z" fill="#63B746"/>
<path d="M29.9044 31.3801H32.8564V32.8559H29.9044V31.3801Z" fill="#63B746"/>
<path d="M12.93 27.69C15.8659 27.69 18.6817 26.5237 20.7577 24.4476C22.8338 22.3715 24.0002 19.5557 24.0002 16.6199C24.0002 13.684 22.8338 10.8681 20.7577 8.79211C18.6816 6.71602 15.8659 5.55005 12.93 5.55005C9.99412 5.55005 7.17824 6.71611 5.10224 8.79211C3.02624 10.8681 1.8598 13.684 1.8598 16.6199C1.86346 19.5551 3.03055 22.3686 5.1059 24.444C7.18124 26.5193 9.99515 27.6868 12.93 27.69ZM12.93 7.02567C15.4745 7.02567 17.9149 8.03639 19.714 9.83564C21.5132 11.6348 22.524 14.0753 22.524 16.6197C22.524 19.164 21.5133 21.6045 19.714 23.4037C17.9148 25.2029 15.4744 26.2137 12.93 26.2137C10.3856 26.2137 7.94512 25.203 6.14596 23.4037C4.3468 21.6045 3.33599 19.164 3.33599 16.6197C3.33892 14.0763 4.35074 11.6377 6.14924 9.83892C7.94774 8.04042 10.3863 7.02858 12.93 7.02567Z" fill="#63B746"/>
<path d="M12.93 18.8335C13.6313 18.835 14.2913 18.5032 14.7091 17.9396C15.1266 17.3764 15.2515 16.6484 15.0464 15.9778C14.8409 15.3073 14.3293 14.774 13.668 14.5412V10.7153H12.1922V14.5412C11.567 14.7646 11.0752 15.2564 10.8518 15.8815H8.50226V17.3573H10.8522H10.8518C11.0038 17.7876 11.2854 18.1604 11.6571 18.4245C12.0292 18.6889 12.4737 18.8317 12.93 18.8335ZM12.93 15.8815C13.2285 15.8815 13.4976 16.0614 13.6119 16.3371C13.7261 16.6129 13.6628 16.9304 13.4519 17.1413C13.2409 17.3526 12.9234 17.4156 12.6477 17.3013C12.3719 17.1871 12.1921 16.9179 12.1921 16.6195C12.1921 16.2119 12.5224 15.8815 12.93 15.8815Z" fill="#63B746"/>
<path d="M4.07343 15.8823H5.54924V17.3581H4.07343V15.8823Z" fill="#63B746"/>
<path d="M12.1922 24H13.668V25.4758H12.1922V24Z" fill="#63B746"/>
<path d="M20.31 15.8823H21.7858V17.3581H20.31V15.8823Z" fill="#63B746"/>
<path d="M12.1922 7.76343H13.668V9.23924H12.1922V7.76343Z" fill="#63B746"/>
</svg>
