<svg width="48" height="48" viewBox="0 0 48 48" fill="none" xmlns="http://www.w3.org/2000/svg">
<path d="M45.6984 33.031L39.6292 25.9178C39.445 25.7145 39.185 25.5966 38.9159 25.5966H31.4341V24.1654C31.4341 22.4131 30.003 20.9819 28.2507 20.9819H10.8647C9.11246 20.9819 7.68127 22.4131 7.68127 24.1654V24.7557H3.01468C2.49978 24.7557 2.07465 25.1714 2.07465 25.6863C2.07465 26.2012 2.49982 26.6168 3.01468 26.6168H7.68127V42.1418C7.68127 42.6567 8.10645 43.0819 8.6213 43.0819H9.73571C10.1704 45.3161 12.1446 47.0117 14.506 47.0117C16.8676 47.0117 18.8419 45.3161 19.2857 43.0819H34.3345C34.7692 45.3161 36.7434 47.0117 39.1048 47.0117C41.4664 47.0117 43.4407 45.3161 43.8751 43.0819H44.9898C45.5047 43.0819 45.9299 42.6567 45.9299 42.1418L45.9302 33.6398C45.9302 33.4084 45.8453 33.196 45.6988 33.0308L45.6984 33.031ZM43.5587 33.3994L36.1103 33.3522V27.4669H38.4816L43.5587 33.3994ZM21.804 24.7558H9.55181V24.1655C9.55181 23.4382 10.1421 22.857 10.8603 22.857H28.2509C28.9687 22.857 29.5594 23.4378 29.5594 24.1655V33.3522H9.55218V26.6216H21.8044C22.3193 26.6216 22.7349 26.206 22.7349 25.6911C22.7349 25.1762 22.324 24.7558 21.8044 24.7558L21.804 24.7558ZM9.55181 35.2174H29.559V41.2159H19.2859C18.842 38.9724 16.8674 37.286 14.5061 37.286C12.1445 37.286 10.1702 38.9724 9.73547 41.2159H9.55127L9.55181 35.2174ZM14.5067 45.1455C12.8536 45.1455 11.5074 43.7993 11.5074 42.1462C11.5074 40.4931 12.858 39.1565 14.5067 39.1565C16.155 39.1565 17.5059 40.4931 17.5059 42.1462C17.5059 43.7993 16.1598 45.1455 14.5067 45.1455ZM39.1001 45.1455C37.447 45.1455 36.1009 43.7993 36.1009 42.1462C36.1009 40.4931 37.447 39.1565 39.1001 39.1565C40.7532 39.1565 42.0994 40.4931 42.0994 42.1462C42.0994 43.7993 40.7532 45.1455 39.1001 45.1455ZM43.8708 41.2157C43.4361 38.9722 41.4619 37.2859 39.1005 37.2859C36.7385 37.2859 34.7642 38.9722 34.3342 41.2157H31.4342V27.4663H34.2397V34.2818C34.2397 34.7967 34.6554 35.2124 35.1703 35.2124L44.0546 35.2691V41.2109H43.8708L43.8708 41.2157Z" fill="#63B746"/>
<path d="M11.4741 30.4378C11.4741 30.9527 11.8897 31.3684 12.4046 31.3684H26.1962C26.7111 31.3684 27.1267 30.9527 27.1267 30.4378C27.1267 29.9229 26.7111 29.4978 26.1962 29.4978H12.4046C11.8897 29.4978 11.4741 29.923 11.4741 30.4378Z" fill="#63B746"/>
<path d="M23.4656 14.6193C23.6403 14.7845 23.8718 14.8789 24.1032 14.8789C24.16 14.8789 24.212 14.8694 24.2684 14.8599C24.5566 14.8127 24.8019 14.6189 24.9437 14.364L28.1271 8.00667C28.3586 7.54378 28.1744 6.98161 27.7115 6.75023C27.249 6.51916 26.6821 6.70336 26.4554 7.16625L23.8246 12.4042L21.3498 10.0806C20.9719 9.73119 20.3815 9.74988 20.0321 10.1183C19.6733 10.4962 19.6919 11.0865 20.0699 11.4454L23.4656 14.6193Z" fill="#63B746"/>
<path d="M23.9147 20.5332H23.9996H24.0846C32.2745 19.7868 32.4873 12.9145 32.4873 12.8295V5.48478C32.4873 5.04093 32.1661 4.65348 31.7314 4.57328C28.2173 3.88846 24.5995 1.20559 24.5617 1.17737C24.231 0.926879 23.7682 0.926879 23.4375 1.17737C23.4001 1.20557 19.782 3.88843 16.2678 4.57328C15.8239 4.65824 15.5119 5.04569 15.5119 5.48478V12.8482C15.5123 12.9097 15.7247 19.782 23.9147 20.5332ZM17.3873 6.23159C20.2214 5.49477 22.8757 3.83215 24 3.06715C25.1242 3.83217 27.7833 5.49481 30.6126 6.23159V12.811C30.6126 13.0234 30.4475 18.0302 24 18.6582C17.5997 18.0302 17.3873 13.0237 17.3873 12.83V6.23159Z" fill="#63B746"/>
</svg>
