<svg width="48" height="48" viewBox="0 0 48 48" fill="none" xmlns="http://www.w3.org/2000/svg">
<path d="M39.4978 22.9153V1.85999C39.4978 1.66443 39.4198 1.47657 39.2814 1.33814C39.143 1.20007 38.9555 1.12207 38.7596 1.12207H1.85956C1.45196 1.12207 1.12164 1.45239 1.12164 1.85999V38.76C1.12164 38.9559 1.19965 39.1434 1.33771 39.2818C1.47614 39.4203 1.66401 39.4983 1.85956 39.4983H22.9149C24.6039 43.2621 28.0356 45.9549 32.0932 46.7009C36.1504 47.4469 40.3153 46.1501 43.2326 43.2329C46.1498 40.3157 47.4465 36.1507 46.7006 32.0935C45.9546 28.0359 43.2618 24.6041 39.4979 22.9152L39.4978 22.9153ZM15.8813 2.59874H24.7374V11.6614L20.6783 9.33664C20.4501 9.20481 20.1685 9.20481 19.9404 9.33664L15.8813 11.6614L15.8813 2.59874ZM22.3387 38.0231H2.59775V2.59874H14.4056V12.9309C14.407 13.1931 14.5473 13.4345 14.7743 13.5656C15.0028 13.6974 15.2841 13.6974 15.5122 13.5656L20.3092 10.8278L25.1062 13.5732V13.5729C25.219 13.6366 25.3461 13.6699 25.4754 13.6688C25.6058 13.6714 25.7343 13.6355 25.8445 13.5656C26.0712 13.4345 26.2118 13.1931 26.2133 12.9309V2.59873H38.0211V22.3397C35.1006 21.4406 31.9523 21.638 29.1673 22.8952C26.3819 24.1528 24.1516 26.383 22.8941 29.1684C21.6369 31.9534 21.4395 35.1017 22.3385 38.0222L22.3387 38.0231ZM34.3312 45.4034C31.3953 45.4034 28.5794 44.237 26.5034 42.1609C24.4273 40.0849 23.261 37.2691 23.261 34.3332C23.261 31.3973 24.4273 28.5815 26.5034 26.5055C28.5795 24.4294 31.3953 23.263 34.3312 23.263C37.2671 23.263 40.0829 24.4294 42.1589 26.5055C44.235 28.5815 45.4014 31.3973 45.4014 34.3332C45.4014 37.2691 44.235 40.0849 42.1589 42.1609C40.0828 44.2369 37.2671 45.4034 34.3312 45.4034Z" fill="#63B746"/>
<path d="M40.066 31.3801H38.819L39.3874 29.1143H39.387C39.602 28.4551 39.4489 27.7315 38.9857 27.2159C38.522 26.7002 37.8189 26.471 37.1407 26.6142C36.4621 26.7577 35.9121 27.2521 35.6971 27.9113L34.7523 30.4206H34.7526C34.6483 30.6997 34.4622 30.9406 34.2183 31.112C33.9748 31.283 33.6851 31.3764 33.387 31.3801H32.1178C32.1178 31.1845 32.0401 30.9967 31.9017 30.8582C31.7633 30.7198 31.5754 30.6422 31.3798 30.6422H27.6899C27.2823 30.6422 26.952 30.9725 26.952 31.3801V38.76C26.952 38.9559 27.0297 39.1434 27.1681 39.2819C27.3065 39.4203 27.494 39.4983 27.6899 39.4983H31.3798C31.5754 39.4983 31.7633 39.4203 31.9017 39.2819C32.0401 39.1434 32.1178 38.9559 32.1178 38.76H32.2507L33.1878 39.3727C33.3079 39.4532 33.4493 39.4972 33.594 39.4983H39.6529C40.2 39.5016 40.7292 39.302 41.1383 38.938C41.547 38.574 41.8066 38.0715 41.8671 37.5277L42.2805 33.8378H42.2801C42.3497 33.2097 42.1476 32.5817 41.7246 32.1122C41.3016 31.6427 40.6981 31.3765 40.0661 31.3802L40.066 31.3801ZM30.6422 38.0221H28.4281V32.118H30.6422V38.0221ZM40.3838 37.3651V37.3654C40.3421 37.7408 40.0238 38.0243 39.6459 38.0221H33.8155L32.856 37.4094C32.7363 37.3288 32.5949 37.2852 32.4503 37.2841H32.1181V32.856H33.3874C33.9895 32.8567 34.5772 32.6729 35.0716 32.3301C35.5664 31.9873 35.9443 31.5013 36.1553 30.9374L37.0924 28.4281C37.1876 28.2007 37.44 28.0828 37.6754 28.1549C37.9087 28.2563 38.0292 28.5167 37.956 28.7603L37.1591 31.9412H37.1587C37.1027 32.1617 37.1518 32.396 37.2916 32.5758C37.4326 32.7538 37.6476 32.8574 37.8747 32.856H40.0888C40.2968 32.8567 40.4952 32.945 40.6348 33.0999C40.7758 33.2566 40.8428 33.4661 40.8194 33.6752L40.3838 37.3651Z" fill="#63B746"/>
</svg>
