<svg width="20" height="20" viewBox="0 0 20 20" fill="none" xmlns="http://www.w3.org/2000/svg">
<mask id="mask0_46_24" style="mask-type:luminance" maskUnits="userSpaceOnUse" x="0" y="2" width="20" height="3">
<path d="M0.159767 2.10938H19.8398V4.10156H0.159767V2.10938Z" fill="white"/>
</mask>
<g mask="url(#mask0_46_24)">
<path d="M1.14418 4.0961H18.8563C19.2079 4.0961 19.5327 3.90856 19.7085 3.60414C19.8843 3.29958 19.8843 2.92453 19.7085 2.62012C19.5327 2.31571 19.2079 2.12817 18.8563 2.12817H1.14418C0.792617 2.12817 0.467773 2.3157 0.291992 2.62012C0.116211 2.92453 0.116211 3.29961 0.291992 3.60414C0.467773 3.90856 0.792617 4.0961 1.14418 4.0961Z" fill="white"/>
</g>
<mask id="mask1_46_24" style="mask-type:luminance" maskUnits="userSpaceOnUse" x="0" y="15" width="20" height="3">
<path d="M0.159767 15.8984H19.8398V17.8906H0.159767V15.8984Z" fill="white"/>
</mask>
<g mask="url(#mask1_46_24)">
<path d="M18.8559 15.9039H1.14374C0.792182 15.9039 0.467339 16.0914 0.291557 16.396C0.115776 16.7004 0.115776 17.0755 0.291557 17.3799C0.467339 17.6845 0.792182 17.872 1.14374 17.872H18.8559C19.2074 17.872 19.5323 17.6845 19.708 17.3799C19.8838 17.0755 19.8838 16.7004 19.708 16.396C19.5323 16.0914 19.2074 15.9039 18.8559 15.9039Z" fill="white"/>
</g>
<mask id="mask2_46_24" style="mask-type:luminance" maskUnits="userSpaceOnUse" x="0" y="8" width="20" height="4">
<path d="M0.159767 8.98438H19.8398V11.0156H0.159767V8.98438Z" fill="white"/>
</mask>
<g mask="url(#mask2_46_24)">
<path d="M18.8559 9.01601H1.14374C0.792182 9.01601 0.467339 9.20355 0.291557 9.50797C0.115776 9.81238 0.115776 10.1876 0.291557 10.492C0.467339 10.7964 0.792182 10.9839 1.14374 10.9839H18.8559C19.2074 10.9839 19.5323 10.7964 19.708 10.492C19.8838 10.1876 19.8838 9.81238 19.708 9.50797C19.5323 9.20355 19.2074 9.01601 18.8559 9.01601Z" fill="white"/>
</g>
</svg>
