<svg width="44" height="44" viewBox="0 0 44 44" fill="none" xmlns="http://www.w3.org/2000/svg">
<path d="M21.3228 32.8239V39.5891C21.3228 39.7684 21.3943 39.9406 21.5212 40.0675C21.6481 40.1944 21.82 40.2656 21.9995 40.2656H32.8234C33.003 40.2656 33.1748 40.1944 33.3017 40.0675C33.4286 39.9406 33.5001 39.7684 33.5001 39.5891V32.8239C33.5001 32.6446 33.4286 32.4724 33.3017 32.3455C33.1748 32.219 33.003 32.1475 32.8234 32.1475H21.9995C21.6259 32.1475 21.3228 32.4503 21.3228 32.8239ZM22.6756 33.5003L32.1468 33.5006V38.9127H22.6756V33.5003Z" fill="#63B746"/>
<path d="M24.029 34.8538H25.3818V37.5598H24.029V34.8538Z" fill="#63B746"/>
<path d="M26.7351 34.8538H28.088V37.5598H26.7351V34.8538Z" fill="#63B746"/>
<path d="M29.4413 34.8538H30.7941V37.5598H29.4413V34.8538Z" fill="#63B746"/>
<path d="M41.6187 11.1763C41.6156 8.30913 40.4001 5.57727 38.2724 3.6557C36.1448 1.73388 33.3035 0.801979 30.4511 1.0903C27.5987 1.37833 25.0011 2.85975 23.3008 5.16795C21.6005 7.47614 20.9557 10.396 21.5264 13.2058H3.05756C2.68393 13.2058 2.38113 13.5086 2.38113 13.8822V42.2948C2.38113 42.4741 2.4523 42.6463 2.57919 42.7732C2.70609 42.9001 2.87796 42.9713 3.05756 42.9713H35.5299C35.7095 42.9713 35.8814 42.9001 36.0083 42.7732C36.1352 42.6463 36.2067 42.4741 36.2067 42.2948V20.1436C37.8384 19.2819 39.2048 17.9915 40.1584 16.4113C41.1118 14.8315 41.6167 13.0212 41.6187 11.1758V11.1763ZM22 14.7893V25.779L19.0956 22.8746C18.8314 22.6107 18.4034 22.6107 18.1392 22.8746L15.2347 25.779V14.5582H21.915C21.9429 14.6354 21.9707 14.7123 21.9999 14.7888L22 14.7893ZM34.8537 41.619H3.73483V14.559H13.8823V27.4127C13.8823 27.686 14.0472 27.9327 14.2999 28.0374C14.5527 28.1422 14.8434 28.0841 15.0371 27.8907L18.6176 24.3102L22.1985 27.8911V27.8907C22.3254 28.0176 22.4972 28.0891 22.6768 28.0891C22.7658 28.0895 22.8537 28.072 22.936 28.0378C23.1888 27.9327 23.3532 27.6863 23.3532 27.4127V17.2394C24.6403 18.9807 26.4537 20.2603 28.5253 20.8898C30.5968 21.5189 32.8162 21.4635 34.8538 20.7324L34.8537 41.619ZM31.4712 19.9705C29.1388 19.9705 26.9018 19.044 25.2525 17.3947C23.6033 15.7454 22.6767 13.5084 22.6767 11.176C22.6767 8.84366 23.6032 6.60654 25.2525 4.95731C26.9019 3.30809 29.1389 2.38151 31.4712 2.38151C33.8036 2.38151 36.0407 3.308 37.6899 4.95731C39.3392 6.60654 40.2657 8.84366 40.2657 11.176C40.2631 13.5078 39.3356 15.7428 37.6869 17.3917C36.0383 19.0403 33.803 19.9678 31.4712 19.9705Z" fill="#63B746"/>
<path d="M36.2063 5.08755H34.1767V4.4108C34.1767 4.23154 34.1056 4.05933 33.9787 3.93244C33.8518 3.80588 33.6796 3.73438 33.5003 3.73438H29.4411C29.0675 3.73438 28.7647 4.03717 28.7647 4.4108V5.08755H26.7351C26.3615 5.08755 26.0587 5.39035 26.0587 5.76398V16.5878C26.0587 16.7671 26.1299 16.9393 26.2568 17.0662C26.3837 17.1931 26.5559 17.2642 26.7351 17.2642H36.2063C36.3856 17.2642 36.5578 17.1931 36.6847 17.0662C36.8116 16.9393 36.8827 16.7671 36.8827 16.5878V5.76398C36.8827 5.58439 36.8116 5.41251 36.6847 5.28562C36.5578 5.15872 36.3856 5.08755 36.2063 5.08755ZM30.1175 5.08755H32.8235V6.44038H30.1175V5.08755ZM35.5296 15.9114L27.4118 15.911V6.43988H28.7647V7.1163C28.7647 7.29589 28.8358 7.46777 28.9627 7.59466C29.0896 7.72156 29.2618 7.79306 29.4411 7.79306H33.5003C33.6795 7.79306 33.8517 7.72155 33.9786 7.59466C34.1055 7.46777 34.1767 7.29589 34.1767 7.1163V6.43988H35.5295L35.5296 15.9114Z" fill="#63B746"/>
<path d="M28.765 9.14648H30.1178V10.4993H28.765V9.14648Z" fill="#63B746"/>
<path d="M31.4712 9.14648H34.1772V10.4993H31.4712V9.14648Z" fill="#63B746"/>
<path d="M28.765 11.8525H30.1178V13.2054H28.765V11.8525Z" fill="#63B746"/>
<path d="M31.4712 11.8525H34.1772V13.2054H31.4712V11.8525Z" fill="#63B746"/>
</svg>
