<svg width="48" height="48" viewBox="0 0 48 48" fill="none" xmlns="http://www.w3.org/2000/svg">
<path d="M19.5722 3.33569C17.5408 3.33569 15.8837 4.99282 15.8837 7.02419V14.4055H10.719C8.6876 14.4055 7.02466 16.0626 7.02466 18.094V30.6396C7.02466 32.671 8.6876 34.3339 10.719 34.3339H15.8837V37.955C15.8804 37.9953 15.8804 38.036 15.8837 38.0763V40.9748C15.8837 43.0062 17.5408 44.6633 19.5722 44.6633H37.2825C39.3138 44.6633 40.9754 43.0062 40.9754 40.9748V7.02419C40.9754 4.99282 39.3138 3.33569 37.2825 3.33569H19.5722ZM19.5722 4.81188H37.2825C38.5218 4.81188 39.4995 5.78529 39.4995 7.02457V37.2814L17.3595 37.2811V34.3349H33.5942C35.6255 34.3349 37.2827 32.672 37.2827 30.6406V20.36H37.283C37.2849 20.3292 37.2849 20.2984 37.283 20.2677V18.0938C37.283 16.0624 35.6259 14.4053 33.5945 14.4053H17.3598V7.02398C17.3598 5.7847 18.3332 4.81129 19.5725 4.81129L19.5722 4.81188ZM25.8479 6.28919C24.8386 6.28919 24 7.12635 24 8.1356C24 9.14485 24.8386 9.97619 25.8479 9.97619H31.0126C32.0219 9.97619 32.859 9.14489 32.859 8.1356C32.859 7.12631 32.0218 6.28919 31.0126 6.28919H25.8479ZM25.8479 7.76538H31.0126C31.2297 7.76538 31.3832 7.91846 31.3832 8.13598C31.3832 8.35315 31.2297 8.50073 31.0126 8.50073L25.8483 8.50036C25.6311 8.50036 25.4766 8.35278 25.4766 8.13562C25.4766 7.91845 25.6315 7.76501 25.8483 7.76501L25.8479 7.76538ZM10.7185 15.8821H16.379V15.8817C16.5358 15.9363 16.7064 15.9363 16.8632 15.8817H33.5938C34.8331 15.8817 35.805 16.8547 35.805 18.0944V19.5706L8.50217 19.5702V18.094C8.50217 16.8547 9.47961 15.8813 10.7192 15.8813L10.7185 15.8821ZM8.5015 21.0468H35.8043V30.6411C35.8043 31.8804 34.8324 32.8581 33.5931 32.8581L10.7181 32.8574C9.47885 32.8574 8.50113 31.88 8.50113 30.6404L8.5015 21.0468ZM17.359 38.7589H39.499V40.9759C39.499 42.2152 38.5216 43.1871 37.282 43.1871L19.5717 43.1864C18.3324 43.1864 17.359 42.2145 17.359 40.9752V38.7589Z" fill="#63B746"/>
</svg>
