<svg width="48" height="48" viewBox="0 0 48 48" fill="none" xmlns="http://www.w3.org/2000/svg">
<path d="M36.0741 22.0669C36.0722 21.3539 35.8067 20.6668 35.3285 20.1381C34.8502 19.6093 34.1929 19.2764 33.4835 19.2035V9.52099C33.4835 8.64539 33.0166 7.83678 32.2585 7.39878C31.5005 6.96115 30.5666 6.96115 29.8086 7.39878C29.0501 7.83677 28.5833 8.64537 28.5833 9.52099V10.7756L28.2365 10.9675C21.4542 14.7681 19.4837 16.0377 18.9156 16.65H8.75314C6.89501 16.6562 5.17011 17.6142 4.18245 19.1882C3.19517 20.7622 3.08342 22.7324 3.88655 24.4078C4.68965 26.0836 6.29509 27.2305 8.14046 27.447V38.6426C8.13057 39.2564 8.36715 39.8485 8.79708 40.2869C9.22701 40.7249 9.81445 40.9728 10.4281 40.9747H12.3914C12.9989 40.9728 13.5809 40.73 14.0097 40.2997C14.4385 39.8698 14.6791 39.2868 14.6791 38.6796V27.484H18.9151C19.4835 28.0967 21.4464 29.3586 28.1993 33.1446L28.5831 33.3584V34.6131C28.5831 35.4883 29.05 36.2973 29.8084 36.7349C30.5664 37.1725 31.5003 37.1725 32.2583 36.7349C33.0164 36.2973 33.4833 35.4883 33.4833 34.6131V24.9231C34.1919 24.8517 34.8492 24.5202 35.3275 23.9929C35.8062 23.4652 36.072 22.7789 36.0739 22.067L36.0741 22.0669ZM34.834 22.0669C34.8337 22.4514 34.6982 22.8238 34.4514 23.1194C34.2045 23.4146 33.8621 23.6142 33.4835 23.683V20.4505C33.8621 20.5197 34.2045 20.7193 34.4514 21.0145C34.6982 21.3096 34.8337 21.6821 34.834 22.067V22.0669ZM4.57623 22.0669H4.57659C4.57842 20.9576 5.01971 19.8945 5.80416 19.1101C6.58858 18.3257 7.65169 17.8844 8.76094 17.8822H18.6872V26.2512H8.75344C7.64419 26.2494 6.58106 25.8077 5.79666 25.0233C5.01223 24.2392 4.57097 23.1761 4.56872 22.0669H4.57623ZM13.4323 38.6419C13.4323 39.2249 12.9599 39.6973 12.3773 39.6973H10.4287C9.84603 39.6973 9.3736 39.2249 9.3736 38.6419V27.7706H13.4473L13.4323 38.6419ZM19.9047 26.745V17.3578C20.7902 16.5313 26.3402 13.402 28.5689 12.1917V31.9411C26.3918 30.7085 20.8053 27.5719 19.9194 26.7453L19.9047 26.745ZM32.2516 34.6123C32.2516 35.2847 31.7063 35.8299 31.034 35.8299C30.3612 35.8299 29.8164 35.2847 29.8164 34.6123V9.52013C29.8164 8.8474 30.3613 8.30251 31.034 8.30251C31.7063 8.30251 32.2516 8.84743 32.2516 9.52013V34.6123Z" fill="#63B746"/>
<path d="M44.0438 21.4463H39.1215C38.7791 21.4463 38.5015 21.7239 38.5015 22.0663C38.5015 22.4087 38.7791 22.6859 39.1215 22.6859H44.0442H44.0438C44.3862 22.6859 44.6638 22.4087 44.6638 22.0663C44.6638 21.7239 44.3862 21.4463 44.0438 21.4463Z" fill="#63B746"/>
<path d="M35.3869 16.0959H40.3091C40.4736 16.0959 40.6314 16.0307 40.7475 15.9146C40.8639 15.7981 40.9291 15.6407 40.9291 15.4762C40.9291 15.3122 40.8636 15.1554 40.7471 15.0404C40.6307 14.9251 40.4728 14.8617 40.3091 14.8636H35.3869C35.0485 14.8636 34.7742 15.1379 34.7742 15.4762C34.7742 15.8157 35.0474 16.0918 35.3869 16.0959Z" fill="#63B746"/>
<path d="M40.3097 28.0369H35.3875C35.0729 28.0713 34.8348 28.3368 34.8348 28.6532C34.8348 28.9692 35.0729 29.2347 35.3875 29.2692H40.3097C40.4851 29.2886 40.6598 29.2322 40.7913 29.1146C40.9224 28.9971 40.9974 28.8293 40.9974 28.6532C40.9974 28.477 40.9224 28.3089 40.7913 28.1914C40.6598 28.0738 40.4851 28.0178 40.3097 28.0369Z" fill="#63B746"/>
</svg>
