<svg width="50" height="50" viewBox="0 0 50 50" fill="none" xmlns="http://www.w3.org/2000/svg">
<path d="M27.1707 19.7089C25.6796 19.376 24.1331 19.376 22.642 19.7089C20.5949 20.1764 18.74 21.2587 17.3254 22.8109C17.158 22.997 16.9906 23.1894 16.8353 23.3876C14.9776 25.7441 14.2398 28.7936 14.8141 31.7388C15.3884 34.6836 17.2181 37.2324 19.8247 38.7183C22.4318 40.2046 25.5569 40.4803 28.3838 39.4744C31.2107 38.4682 33.4585 36.2796 34.5397 33.4806C35.6215 30.6816 35.4296 27.5502 34.0135 24.9046C32.5979 22.2591 30.0995 20.3615 27.1707 19.7089ZM31.8423 35.5851C29.7514 37.932 26.5935 39.0277 23.4982 38.4808C20.4029 37.9344 17.8122 35.8228 16.6515 32.902C15.4908 29.9808 15.9266 26.6667 17.803 24.1453C17.9396 23.9654 18.0883 23.8043 18.2374 23.6364C19.4856 22.2877 21.1147 21.3507 22.909 20.95C24.2202 20.6566 25.58 20.6566 26.8918 20.95C29.9775 21.6422 32.4797 23.8928 33.4931 26.889C34.5071 29.8847 33.8861 33.1922 31.8547 35.6159L31.8423 35.5851Z" fill="#63B746"/>
<path d="M29.4476 24.1999C29.2051 23.9594 28.8145 23.9594 28.5726 24.1999L22.8587 29.9201L21.2397 28.1769V28.1764C21.1228 28.0504 20.9588 27.9782 20.7871 27.9778C20.6149 27.9782 20.4508 28.0504 20.334 28.1764L18.2742 30.3909C18.0419 30.6314 18.0419 31.0129 18.2742 31.2534L22.4186 35.3665C22.5355 35.4829 22.6942 35.5473 22.8587 35.5464C23.0237 35.5473 23.1824 35.4829 23.2993 35.3665L31.513 27.1528C31.6308 27.0364 31.6967 26.8776 31.6967 26.7122C31.6967 26.5467 31.6308 26.3884 31.513 26.2716L29.4476 24.1999ZM22.8342 34.0452L19.5897 30.7946L20.7869 29.5102L22.4185 31.2347C22.5325 31.3578 22.6913 31.4295 22.8587 31.4333C23.027 31.4338 23.1891 31.3694 23.3118 31.2534L29.0377 25.5212L30.2224 26.7002L22.8342 34.0452Z" fill="#63B746"/>
<path d="M39.7887 10.769C39.7367 10.6122 39.6251 10.4828 39.4784 10.4087L30.979 6.06614C30.6741 5.91317 30.3027 6.03487 30.1479 6.33936L25.6874 15.0928C25.5215 15.0577 25.3536 15.0331 25.1848 15.0182C24.9784 15.0019 24.7706 15.0019 24.5643 15.0182C24.4017 15.0312 24.2401 15.0543 24.0804 15.0865L19.6695 6.36389C19.6008 6.21237 19.4738 6.095 19.3174 6.03777C19.1611 5.98053 18.9884 5.9887 18.8384 6.05989L10.339 10.4025V10.403C10.035 10.5574 9.91281 10.9292 10.0663 11.2342L14.6507 20.2483C14.6507 20.3661 14.6012 20.484 14.5886 20.6018C14.4766 21.5648 13.8734 22.4012 12.9941 22.8107C11.9739 23.2772 11.1957 24.1498 10.8483 25.2162C10.5005 26.283 10.615 27.4466 11.1643 28.425C11.6458 29.2668 11.6458 30.3004 11.1643 31.1422C10.6251 32.1172 10.5155 33.2721 10.8613 34.3309C11.2072 35.3896 11.9777 36.2569 12.9879 36.7258C13.871 37.1346 14.4776 37.9735 14.5887 38.9403C14.7041 39.9168 15.1727 40.8167 15.9067 41.4704C16.6407 42.1241 17.5887 42.4868 18.5715 42.4892C18.836 42.4873 19.1001 42.4599 19.3594 42.4084C19.5412 42.3718 19.7264 42.3531 19.9116 42.3526C20.6903 42.3641 21.4287 42.7013 21.9462 43.2829C22.7062 44.1064 23.7759 44.5748 24.8962 44.5748C26.017 44.5748 27.0862 44.1063 27.8463 43.2829C28.3633 42.7129 29.093 42.3829 29.8626 42.3714C30.0478 42.3718 30.233 42.3906 30.4148 42.4272C30.6741 42.4786 30.9377 42.5056 31.2027 42.5075C32.1931 42.5123 33.1498 42.1506 33.8901 41.4921C34.6299 40.8336 35.0998 39.9245 35.21 38.9403C35.3259 37.9816 35.9291 37.1514 36.8045 36.744C37.8248 36.2774 38.603 35.4049 38.9508 34.3385C39.2986 33.2716 39.1837 32.1081 38.6348 31.1296C38.1553 30.2898 38.1553 29.259 38.6348 28.4186C39.1736 27.4436 39.2832 26.2887 38.9374 25.2299C38.5915 24.1712 37.8214 23.3039 36.8108 22.835C35.932 22.4305 35.3263 21.5993 35.21 20.6387C35.21 20.5209 35.1729 20.403 35.1479 20.2789L39.7324 11.2648H39.7328C39.8199 11.1147 39.8401 10.935 39.7887 10.769ZM18.8441 7.47457L22.9384 15.5396C22.5704 15.7436 22.2371 16.0057 21.9519 16.315C21.4295 16.8735 20.7003 17.1919 19.936 17.1958C19.7503 17.1953 19.5656 17.1765 19.3838 17.14C19.124 17.0885 18.8604 17.0616 18.5959 17.0596C17.2861 17.0587 16.0595 17.7013 15.314 18.7778L11.449 11.2341L18.8441 7.47457ZM36.2952 23.9394C36.7806 24.1583 37.1918 24.5123 37.4814 24.9591C37.7705 25.4055 37.9254 25.926 37.9268 26.458C37.9297 26.9342 37.8075 27.4027 37.5733 27.8168C36.8797 29.0362 36.8797 30.5307 37.5733 31.75C37.808 32.1641 37.9297 32.6326 37.9268 33.1083C37.9263 33.6393 37.7734 34.1588 37.4867 34.6052C37.1995 35.0516 36.7907 35.4065 36.3077 35.6273C35.0383 36.2161 34.1649 37.4205 33.9999 38.8097C33.9282 39.4903 33.6069 40.1205 33.0985 40.5784C32.59 41.0368 31.9301 41.2907 31.2456 41.2912C31.0599 41.2902 30.8752 41.2715 30.6934 41.2354C30.4207 41.1719 30.1422 41.1363 29.8622 41.1301C28.74 41.132 27.6697 41.6019 26.9089 42.4268C26.3841 42.9954 25.6452 43.3191 24.8713 43.3191C24.0969 43.3191 23.3581 42.9954 22.8332 42.4268C22.0858 41.6159 21.0386 41.1473 19.9362 41.1301C19.6711 41.1315 19.4075 41.1584 19.1483 41.2109C18.966 41.2465 18.7813 41.2652 18.5961 41.2667C17.9116 41.2657 17.2516 41.0117 16.7432 40.5538C16.2343 40.0954 15.9135 39.4658 15.8413 38.7852C15.6754 37.3941 14.799 36.1897 13.5272 35.6023C13.0418 35.3887 12.6272 35.0405 12.3338 34.5984C12.0399 34.1564 11.8797 33.6393 11.8711 33.1082C11.8682 32.6325 11.9904 32.164 12.2246 31.7499C12.9182 30.5305 12.9182 29.036 12.2246 27.8167C11.9904 27.4026 11.8682 26.9341 11.8711 26.4579C11.8715 25.9273 12.0245 25.4078 12.3112 24.9615C12.5983 24.5151 13.0077 24.1601 13.4901 23.9394C14.7596 23.3506 15.633 22.1462 15.798 20.757C15.8423 20.3125 15.9957 19.8863 16.2449 19.516C16.7552 18.7396 17.6229 18.273 18.5522 18.2755C18.7379 18.2765 18.9226 18.2952 19.1044 18.3313C19.3642 18.3837 19.6278 18.4106 19.8923 18.4116C21.0145 18.4097 22.0848 17.9397 22.8457 17.1153C23.3281 16.5915 23.9953 16.2755 24.7067 16.2341C24.8428 16.2235 24.9799 16.2235 25.116 16.2341C25.8144 16.2837 26.4672 16.5992 26.9399 17.1153C27.8827 18.1442 29.2901 18.6132 30.662 18.3558C30.8443 18.3202 31.029 18.3015 31.2142 18.3C32.1435 18.2981 33.0113 18.7642 33.5221 19.541C33.7712 19.9114 33.9247 20.3376 33.9689 20.7815C34.1349 22.1721 35.0113 23.377 36.2831 23.9644L36.2952 23.9394ZM34.5087 18.7777C33.7632 17.7012 32.5366 17.0586 31.2269 17.0595C30.9604 17.061 30.6944 17.0879 30.4327 17.1399C29.4851 17.3332 28.5058 17.0153 27.8521 16.3024C27.5654 15.9902 27.2302 15.7262 26.8593 15.5208L30.9536 7.45571L38.3487 11.209L34.5087 18.7777Z" fill="#63B746"/>
</svg>
